<svg width="33" height="33" viewBox="0 0 33 33" fill="none" xmlns="http://www.w3.org/2000/svg">
<circle cx="16.5" cy="16.5" r="16.5" fill="#FFC200"/>
<path d="M17.6104 9.21019C17.8729 8.94773 18.229 8.80029 18.6002 8.80029C18.9714 8.80029 19.3275 8.94773 19.59 9.21019L25.89 15.5102C26.1525 15.7727 26.2999 16.1288 26.2999 16.5C26.2999 16.8712 26.1525 17.2273 25.89 17.4898L19.59 23.7898C19.326 24.0448 18.9723 24.1859 18.6052 24.1827C18.2382 24.1795 17.887 24.0323 17.6274 23.7727C17.3679 23.5132 17.2206 23.162 17.2175 22.795C17.2143 22.4279 17.3554 22.0742 17.6104 21.8102L21.4002 17.9H8.1002C7.72889 17.9 7.3728 17.7525 7.11025 17.4899C6.84769 17.2274 6.7002 16.8713 6.7002 16.5C6.7002 16.1287 6.84769 15.7726 7.11025 15.51C7.3728 15.2475 7.72889 15.1 8.1002 15.1H21.4002L17.6104 11.1898C17.3479 10.9273 17.2005 10.5712 17.2005 10.2C17.2005 9.82876 17.3479 9.47273 17.6104 9.21019Z" fill="white"/>
</svg>
