<svg width="32" height="32" viewBox="0 0 32 32" fill="none" xmlns="http://www.w3.org/2000/svg">
<path fill-rule="evenodd" clip-rule="evenodd" d="M7.4985 5.89868C5.2865 6.90934 3.6665 9.31468 3.6665 12.1827C3.6665 15.112 4.8665 17.3707 6.58384 19.3067C8.00117 20.9013 9.71584 22.224 11.3878 23.512C11.7861 23.8187 12.1794 24.1245 12.5678 24.4293C13.2692 24.9827 13.8945 25.4667 14.4985 25.82C15.1025 26.1733 15.5865 26.3333 15.9998 26.3333C16.4132 26.3333 16.8985 26.1733 17.5012 25.82C18.1052 25.4667 18.7305 24.9827 19.4318 24.4293C19.8203 24.1236 20.2136 23.8182 20.6118 23.5133C22.2838 22.2227 23.9985 20.9013 25.4158 19.3067C27.1345 17.3707 28.3332 15.112 28.3332 12.1827C28.3332 9.31601 26.7132 6.90934 24.5012 5.89868C22.3518 4.91601 19.4638 5.17601 16.7198 8.02801C16.6266 8.12479 16.5147 8.20178 16.391 8.25436C16.2673 8.30694 16.1343 8.33404 15.9998 8.33404C15.8654 8.33404 15.7324 8.30694 15.6087 8.25436C15.485 8.20178 15.3731 8.12479 15.2798 8.02801C12.5358 5.17601 9.64784 4.91601 7.4985 5.89868ZM15.9998 5.94668C12.9172 3.18668 9.46517 2.80001 6.6665 4.07868C3.7145 5.43201 1.6665 8.56801 1.6665 12.184C1.6665 15.7373 3.1465 18.4493 5.08917 20.636C6.64384 22.3867 8.5465 23.852 10.2278 25.1453C10.6101 25.4387 10.9772 25.724 11.3292 26.0013C12.0132 26.54 12.7465 27.1133 13.4892 27.548C14.2318 27.9827 15.0798 28.3347 15.9998 28.3347C16.9198 28.3347 17.7678 27.9813 18.5105 27.548C19.2545 27.1133 19.9865 26.54 20.6705 26.0013C21.0225 25.724 21.3896 25.4387 21.7718 25.1453C23.4518 23.852 25.3558 22.3853 26.9105 20.636C28.8532 18.4493 30.3332 15.7373 30.3332 12.184C30.3332 8.56801 28.2865 5.43201 25.3332 4.08134C22.5345 2.80134 19.0825 3.18801 15.9998 5.94668Z" fill="#AFA1A1"/>
</svg>
