<svg width="17" height="17" viewBox="0 0 17 17" fill="none" xmlns="http://www.w3.org/2000/svg">
<path d="M8.49958 14.2417L4.37929 16.8406C4.19727 16.9619 4.00698 17.0138 3.80841 16.9965C3.60984 16.9792 3.43609 16.9099 3.28717 16.7886C3.13824 16.6673 3.02241 16.5159 2.93967 16.3343C2.85694 16.1528 2.84039 15.949 2.89003 15.7231L3.98216 10.8112L0.333471 7.5107C0.167998 7.35476 0.0647422 7.177 0.0237048 6.97741C-0.0173325 6.77782 -0.00508757 6.58308 0.0604398 6.39319C0.125967 6.2033 0.225251 6.04737 0.358292 5.92539C0.491332 5.80342 0.673353 5.72545 0.904353 5.6915L5.71963 5.24969L7.5812 0.623726C7.66394 0.415817 7.79234 0.259886 7.96642 0.155931C8.1405 0.051977 8.31822 0 8.49958 0C8.68094 0 8.85865 0.051977 9.03273 0.155931C9.20681 0.259886 9.33522 0.415817 9.41795 0.623726L11.2795 5.24969L16.0948 5.6915C16.3265 5.72615 16.5085 5.80411 16.6409 5.92539C16.7732 6.04667 16.8725 6.20261 16.9387 6.39319C17.0049 6.58377 17.0175 6.77886 16.9764 6.97845C16.9354 7.17804 16.8318 7.35546 16.6657 7.5107L13.017 10.8112L14.1091 15.7231C14.1588 15.9483 14.1422 16.1521 14.0595 16.3343C13.9767 16.5166 13.8609 16.668 13.712 16.7886C13.5631 16.9092 13.3893 16.9785 13.1907 16.9965C12.9922 17.0145 12.8019 16.9626 12.6199 16.8406L8.49958 14.2417Z" fill="#FFC200"/>
</svg>
