<svg width="180" height="180" viewBox="0 0 180 180" fill="none" xmlns="http://www.w3.org/2000/svg">
<circle cx="90" cy="90" r="90" fill="#FF9E97"/>
<circle cx="89.6105" cy="63.3646" r="32.3156" fill="#FFFCF2"/>
<path d="M133 153.5C133.5 158 134 165.5 134 168.5C121 175.5 107.718 180 89.5 180C71.2816 180 57 175.5 43.5 167C43.5 163.5 44.5 158.092 44.5 153.5C44.5 141.131 49.1968 120.64 60 109.5C68.2499 100.993 81.7281 99 89.5 99C97.2719 99 112.069 100.993 120 109.5C130.386 120.64 133 141.131 133 153.5Z" fill="#FFFCF2"/>
<path fill-rule="evenodd" clip-rule="evenodd" d="M43.7039 97.5958C42.3961 97.1041 41 98.0707 41 99.4679V153.359C41 154.192 41.5163 154.938 42.2961 155.231L89.5517 173L135.718 155.237C136.49 154.94 137 154.198 137 153.37V99.4916C137 98.0879 135.592 97.1209 134.282 97.625L89.5517 114.835L43.7039 97.5958Z" fill="#FFD348"/>
<ellipse cx="41" cy="131.5" rx="11" ry="14.5" fill="#FFFCF2"/>
<path d="M137 99.4916C137 98.0879 135.592 97.1209 134.282 97.625L89.5517 114.835V173L135.718 155.237C136.49 154.94 137 154.198 137 153.37V99.4916Z" fill="#EABE32"/>
<ellipse cx="137" cy="131.5" rx="11" ry="14.5" fill="#FFFCF2"/>
</svg>
