<svg width="42" height="42" viewBox="0 0 42 42" fill="none" xmlns="http://www.w3.org/2000/svg">
<path fill-rule="evenodd" clip-rule="evenodd" d="M21 34.5106L11.3062 40.6249C10.8779 40.9119 10.4302 41.0342 9.96295 40.9918C9.49573 40.9494 9.08692 40.7864 8.7365 40.5026C8.38609 40.2189 8.11354 39.8626 7.91887 39.4337C7.72419 39.0049 7.68526 38.5255 7.80207 37.9955L10.3718 26.4382L1.78663 18.6722C1.39572 18.307 1.15199 17.8895 1.05543 17.4199C0.958872 16.9503 0.988462 16.4912 1.1442 16.0428C1.29994 15.5944 1.53355 15.2275 1.84503 14.9421C2.15651 14.6567 2.58479 14.4733 3.12988 14.3918L14.4599 13.3522L18.8401 2.46759C19.0348 1.97839 19.3369 1.6115 19.7465 1.3669C20.1558 1.12249 20.5736 1.00019 21 1V34.5106Z" fill="#FFC200"/>
<path d="M18.8625 1.94993L14.3625 13.4499L2.86253 14.4498C0.0625287 15.6498 1.0292 17.6165 1.86253 18.4498L10.5 26.5664L7.36253 38.4498C7.36253 41.6498 9.69586 41.4498 10.8625 40.9498L20.8625 34.4498L30.8625 40.9498C33.6625 41.3498 34.0292 39.4498 33.8625 38.4498L31.3625 26.4498L40.3625 18.4498C41.5625 16.0498 40.1959 14.7831 39.3625 14.4498L27.3625 13.4499L22.8625 1.94993C21.2625 0.349934 19.5 1.06641 18.8625 1.94993Z" stroke="black"/>
</svg>
